<svg width="163" height="35" viewBox="0 0 163 35" fill="none" xmlns="http://www.w3.org/2000/svg">
<mask id="path-1-outside-1_1237_11" maskUnits="userSpaceOnUse" x="0" y="0" width="163" height="35" fill="black">
<rect fill="white" width="163" height="35"/>
<path d="M16.5625 19.6562C16.5625 21.7188 15.8177 23.3438 14.3281 24.5312C12.849 25.7188 10.7865 26.3125 8.14062 26.3125C5.70312 26.3125 3.54688 25.8542 1.67188 24.9375V20.4375C3.21354 21.125 4.51562 21.6094 5.57812 21.8906C6.65104 22.1719 7.63021 22.3125 8.51562 22.3125C9.57812 22.3125 10.3906 22.1094 10.9531 21.7031C11.526 21.2969 11.8125 20.6927 11.8125 19.8906C11.8125 19.4427 11.6875 19.0469 11.4375 18.7031C11.1875 18.349 10.8177 18.0104 10.3281 17.6875C9.84896 17.3646 8.86458 16.849 7.375 16.1406C5.97917 15.4844 4.93229 14.8542 4.23438 14.25C3.53646 13.6458 2.97917 12.9427 2.5625 12.1406C2.14583 11.3385 1.9375 10.401 1.9375 9.32812C1.9375 7.30729 2.61979 5.71875 3.98438 4.5625C5.35938 3.40625 7.25521 2.82812 9.67188 2.82812C10.8594 2.82812 11.9896 2.96875 13.0625 3.25C14.1458 3.53125 15.276 3.92708 16.4531 4.4375L14.8906 8.20312C13.6719 7.70312 12.6615 7.35417 11.8594 7.15625C11.0677 6.95833 10.2865 6.85938 9.51562 6.85938C8.59896 6.85938 7.89583 7.07292 7.40625 7.5C6.91667 7.92708 6.67188 8.48438 6.67188 9.17188C6.67188 9.59896 6.77083 9.97396 6.96875 10.2969C7.16667 10.6094 7.47917 10.9167 7.90625 11.2188C8.34375 11.5104 9.36979 12.0417 10.9844 12.8125C13.1198 13.8333 14.5833 14.8594 15.375 15.8906C16.1667 16.9115 16.5625 18.1667 16.5625 19.6562ZM24.125 17.2344C24.125 18.9635 24.4062 20.2708 24.9688 21.1562C25.5417 22.0417 26.4688 22.4844 27.75 22.4844C29.0208 22.4844 29.9323 22.0469 30.4844 21.1719C31.0469 20.2865 31.3281 18.974 31.3281 17.2344C31.3281 15.5052 31.0469 14.2083 30.4844 13.3438C29.9219 12.4792 29 12.0469 27.7188 12.0469C26.4479 12.0469 25.5312 12.4792 24.9688 13.3438C24.4062 14.1979 24.125 15.4948 24.125 17.2344ZM36.2031 17.2344C36.2031 20.0781 35.4531 22.3021 33.9531 23.9062C32.4531 25.5104 30.3646 26.3125 27.6875 26.3125C26.0104 26.3125 24.5312 25.9479 23.25 25.2188C21.9688 24.4792 20.9844 23.4219 20.2969 22.0469C19.6094 20.6719 19.2656 19.0677 19.2656 17.2344C19.2656 14.3802 20.0104 12.1615 21.5 10.5781C22.9896 8.99479 25.0833 8.20312 27.7812 8.20312C29.4583 8.20312 30.9375 8.56771 32.2188 9.29688C33.5 10.026 34.4844 11.0729 35.1719 12.4375C35.8594 13.8021 36.2031 15.401 36.2031 17.2344ZM47.2344 26.3125C41.7969 26.3125 39.0781 23.3281 39.0781 17.3594C39.0781 14.3906 39.8177 12.125 41.2969 10.5625C42.776 8.98958 44.8958 8.20312 47.6562 8.20312C49.6771 8.20312 51.4896 8.59896 53.0938 9.39062L51.6875 13.0781C50.9375 12.776 50.2396 12.5312 49.5938 12.3438C48.9479 12.1458 48.3021 12.0469 47.6562 12.0469C45.1771 12.0469 43.9375 13.8073 43.9375 17.3281C43.9375 20.7448 45.1771 22.4531 47.6562 22.4531C48.5729 22.4531 49.4219 22.3333 50.2031 22.0938C50.9844 21.8438 51.7656 21.4583 52.5469 20.9375V25.0156C51.776 25.5052 50.9948 25.8438 50.2031 26.0312C49.4219 26.2188 48.4323 26.3125 47.2344 26.3125ZM56.4062 4.01562C56.4062 2.46354 57.2708 1.6875 59 1.6875C60.7292 1.6875 61.5938 2.46354 61.5938 4.01562C61.5938 4.75521 61.375 5.33333 60.9375 5.75C60.5104 6.15625 59.8646 6.35938 59 6.35938C57.2708 6.35938 56.4062 5.57812 56.4062 4.01562ZM61.375 26H56.6094V8.53125H61.375V26ZM77.4844 26L76.5625 23.625H76.4375C75.6354 24.6354 74.8073 25.3385 73.9531 25.7344C73.1094 26.1198 72.0052 26.3125 70.6406 26.3125C68.9635 26.3125 67.6406 25.8333 66.6719 24.875C65.7135 23.9167 65.2344 22.5521 65.2344 20.7812C65.2344 18.9271 65.8802 17.5625 67.1719 16.6875C68.474 15.8021 70.4323 15.3125 73.0469 15.2188L76.0781 15.125V14.3594C76.0781 12.5885 75.1719 11.7031 73.3594 11.7031C71.9635 11.7031 70.3229 12.125 68.4375 12.9688L66.8594 9.75C68.8698 8.69792 71.099 8.17188 73.5469 8.17188C75.8906 8.17188 77.6875 8.68229 78.9375 9.70312C80.1875 10.724 80.8125 12.276 80.8125 14.3594V26H77.4844ZM76.0781 17.9062L74.2344 17.9688C72.849 18.0104 71.8177 18.2604 71.1406 18.7188C70.4635 19.1771 70.125 19.875 70.125 20.8125C70.125 22.1562 70.8958 22.8281 72.4375 22.8281C73.5417 22.8281 74.4219 22.5104 75.0781 21.875C75.7448 21.2396 76.0781 20.3958 76.0781 19.3438V17.9062ZM90.5 26H85.7344V1.6875H90.5V26ZM105.562 26L100.062 8.07812H99.9219C100.12 11.724 100.219 14.1562 100.219 15.375V26H95.8906V3.15625H102.484L107.891 20.625H107.984L113.719 3.15625H120.312V26H115.797V15.1875C115.797 14.6771 115.802 14.0885 115.812 13.4219C115.833 12.7552 115.906 10.9844 116.031 8.10938H115.891L110 26H105.562ZM136.797 26L135.875 23.625H135.75C134.948 24.6354 134.12 25.3385 133.266 25.7344C132.422 26.1198 131.318 26.3125 129.953 26.3125C128.276 26.3125 126.953 25.8333 125.984 24.875C125.026 23.9167 124.547 22.5521 124.547 20.7812C124.547 18.9271 125.193 17.5625 126.484 16.6875C127.786 15.8021 129.745 15.3125 132.359 15.2188L135.391 15.125V14.3594C135.391 12.5885 134.484 11.7031 132.672 11.7031C131.276 11.7031 129.635 12.125 127.75 12.9688L126.172 9.75C128.182 8.69792 130.411 8.17188 132.859 8.17188C135.203 8.17188 137 8.68229 138.25 9.70312C139.5 10.724 140.125 12.276 140.125 14.3594V26H136.797ZM135.391 17.9062L133.547 17.9688C132.161 18.0104 131.13 18.2604 130.453 18.7188C129.776 19.1771 129.438 19.875 129.438 20.8125C129.438 22.1562 130.208 22.8281 131.75 22.8281C132.854 22.8281 133.734 22.5104 134.391 21.875C135.057 21.2396 135.391 20.3958 135.391 19.3438V17.9062ZM154.641 26.3125C152.589 26.3125 150.979 25.5677 149.812 24.0781H149.562C149.729 25.5365 149.812 26.3802 149.812 26.6094V33.6875H145.047V8.53125H148.922L149.594 10.7969H149.812C150.927 9.06771 152.578 8.20312 154.766 8.20312C156.828 8.20312 158.443 9 159.609 10.5938C160.776 12.1875 161.359 14.401 161.359 17.2344C161.359 19.099 161.083 20.7188 160.531 22.0938C159.99 23.4688 159.214 24.5156 158.203 25.2344C157.193 25.9531 156.005 26.3125 154.641 26.3125ZM153.234 12.0156C152.057 12.0156 151.198 12.3802 150.656 13.1094C150.115 13.8281 149.833 15.0208 149.812 16.6875V17.2031C149.812 19.0781 150.089 20.4219 150.641 21.2344C151.203 22.0469 152.089 22.4531 153.297 22.4531C155.432 22.4531 156.5 20.6927 156.5 17.1719C156.5 15.4531 156.234 14.1667 155.703 13.3125C155.182 12.4479 154.359 12.0156 153.234 12.0156Z"/>
</mask>
<g filter="url(#filter0_i_1237_11)">
<path d="M16.5625 19.6562C16.5625 21.7188 15.8177 23.3438 14.3281 24.5312C12.849 25.7188 10.7865 26.3125 8.14062 26.3125C5.70312 26.3125 3.54688 25.8542 1.67188 24.9375V20.4375C3.21354 21.125 4.51562 21.6094 5.57812 21.8906C6.65104 22.1719 7.63021 22.3125 8.51562 22.3125C9.57812 22.3125 10.3906 22.1094 10.9531 21.7031C11.526 21.2969 11.8125 20.6927 11.8125 19.8906C11.8125 19.4427 11.6875 19.0469 11.4375 18.7031C11.1875 18.349 10.8177 18.0104 10.3281 17.6875C9.84896 17.3646 8.86458 16.849 7.375 16.1406C5.97917 15.4844 4.93229 14.8542 4.23438 14.25C3.53646 13.6458 2.97917 12.9427 2.5625 12.1406C2.14583 11.3385 1.9375 10.401 1.9375 9.32812C1.9375 7.30729 2.61979 5.71875 3.98438 4.5625C5.35938 3.40625 7.25521 2.82812 9.67188 2.82812C10.8594 2.82812 11.9896 2.96875 13.0625 3.25C14.1458 3.53125 15.276 3.92708 16.4531 4.4375L14.8906 8.20312C13.6719 7.70312 12.6615 7.35417 11.8594 7.15625C11.0677 6.95833 10.2865 6.85938 9.51562 6.85938C8.59896 6.85938 7.89583 7.07292 7.40625 7.5C6.91667 7.92708 6.67188 8.48438 6.67188 9.17188C6.67188 9.59896 6.77083 9.97396 6.96875 10.2969C7.16667 10.6094 7.47917 10.9167 7.90625 11.2188C8.34375 11.5104 9.36979 12.0417 10.9844 12.8125C13.1198 13.8333 14.5833 14.8594 15.375 15.8906C16.1667 16.9115 16.5625 18.1667 16.5625 19.6562ZM24.125 17.2344C24.125 18.9635 24.4062 20.2708 24.9688 21.1562C25.5417 22.0417 26.4688 22.4844 27.75 22.4844C29.0208 22.4844 29.9323 22.0469 30.4844 21.1719C31.0469 20.2865 31.3281 18.974 31.3281 17.2344C31.3281 15.5052 31.0469 14.2083 30.4844 13.3438C29.9219 12.4792 29 12.0469 27.7188 12.0469C26.4479 12.0469 25.5312 12.4792 24.9688 13.3438C24.4062 14.1979 24.125 15.4948 24.125 17.2344ZM36.2031 17.2344C36.2031 20.0781 35.4531 22.3021 33.9531 23.9062C32.4531 25.5104 30.3646 26.3125 27.6875 26.3125C26.0104 26.3125 24.5312 25.9479 23.25 25.2188C21.9688 24.4792 20.9844 23.4219 20.2969 22.0469C19.6094 20.6719 19.2656 19.0677 19.2656 17.2344C19.2656 14.3802 20.0104 12.1615 21.5 10.5781C22.9896 8.99479 25.0833 8.20312 27.7812 8.20312C29.4583 8.20312 30.9375 8.56771 32.2188 9.29688C33.5 10.026 34.4844 11.0729 35.1719 12.4375C35.8594 13.8021 36.2031 15.401 36.2031 17.2344ZM47.2344 26.3125C41.7969 26.3125 39.0781 23.3281 39.0781 17.3594C39.0781 14.3906 39.8177 12.125 41.2969 10.5625C42.776 8.98958 44.8958 8.20312 47.6562 8.20312C49.6771 8.20312 51.4896 8.59896 53.0938 9.39062L51.6875 13.0781C50.9375 12.776 50.2396 12.5312 49.5938 12.3438C48.9479 12.1458 48.3021 12.0469 47.6562 12.0469C45.1771 12.0469 43.9375 13.8073 43.9375 17.3281C43.9375 20.7448 45.1771 22.4531 47.6562 22.4531C48.5729 22.4531 49.4219 22.3333 50.2031 22.0938C50.9844 21.8438 51.7656 21.4583 52.5469 20.9375V25.0156C51.776 25.5052 50.9948 25.8438 50.2031 26.0312C49.4219 26.2188 48.4323 26.3125 47.2344 26.3125ZM56.4062 4.01562C56.4062 2.46354 57.2708 1.6875 59 1.6875C60.7292 1.6875 61.5938 2.46354 61.5938 4.01562C61.5938 4.75521 61.375 5.33333 60.9375 5.75C60.5104 6.15625 59.8646 6.35938 59 6.35938C57.2708 6.35938 56.4062 5.57812 56.4062 4.01562ZM61.375 26H56.6094V8.53125H61.375V26ZM77.4844 26L76.5625 23.625H76.4375C75.6354 24.6354 74.8073 25.3385 73.9531 25.7344C73.1094 26.1198 72.0052 26.3125 70.6406 26.3125C68.9635 26.3125 67.6406 25.8333 66.6719 24.875C65.7135 23.9167 65.2344 22.5521 65.2344 20.7812C65.2344 18.9271 65.8802 17.5625 67.1719 16.6875C68.474 15.8021 70.4323 15.3125 73.0469 15.2188L76.0781 15.125V14.3594C76.0781 12.5885 75.1719 11.7031 73.3594 11.7031C71.9635 11.7031 70.3229 12.125 68.4375 12.9688L66.8594 9.75C68.8698 8.69792 71.099 8.17188 73.5469 8.17188C75.8906 8.17188 77.6875 8.68229 78.9375 9.70312C80.1875 10.724 80.8125 12.276 80.8125 14.3594V26H77.4844ZM76.0781 17.9062L74.2344 17.9688C72.849 18.0104 71.8177 18.2604 71.1406 18.7188C70.4635 19.1771 70.125 19.875 70.125 20.8125C70.125 22.1562 70.8958 22.8281 72.4375 22.8281C73.5417 22.8281 74.4219 22.5104 75.0781 21.875C75.7448 21.2396 76.0781 20.3958 76.0781 19.3438V17.9062ZM90.5 26H85.7344V1.6875H90.5V26ZM105.562 26L100.062 8.07812H99.9219C100.12 11.724 100.219 14.1562 100.219 15.375V26H95.8906V3.15625H102.484L107.891 20.625H107.984L113.719 3.15625H120.312V26H115.797V15.1875C115.797 14.6771 115.802 14.0885 115.812 13.4219C115.833 12.7552 115.906 10.9844 116.031 8.10938H115.891L110 26H105.562ZM136.797 26L135.875 23.625H135.75C134.948 24.6354 134.12 25.3385 133.266 25.7344C132.422 26.1198 131.318 26.3125 129.953 26.3125C128.276 26.3125 126.953 25.8333 125.984 24.875C125.026 23.9167 124.547 22.5521 124.547 20.7812C124.547 18.9271 125.193 17.5625 126.484 16.6875C127.786 15.8021 129.745 15.3125 132.359 15.2188L135.391 15.125V14.3594C135.391 12.5885 134.484 11.7031 132.672 11.7031C131.276 11.7031 129.635 12.125 127.75 12.9688L126.172 9.75C128.182 8.69792 130.411 8.17188 132.859 8.17188C135.203 8.17188 137 8.68229 138.25 9.70312C139.5 10.724 140.125 12.276 140.125 14.3594V26H136.797ZM135.391 17.9062L133.547 17.9688C132.161 18.0104 131.13 18.2604 130.453 18.7188C129.776 19.1771 129.438 19.875 129.438 20.8125C129.438 22.1562 130.208 22.8281 131.75 22.8281C132.854 22.8281 133.734 22.5104 134.391 21.875C135.057 21.2396 135.391 20.3958 135.391 19.3438V17.9062ZM154.641 26.3125C152.589 26.3125 150.979 25.5677 149.812 24.0781H149.562C149.729 25.5365 149.812 26.3802 149.812 26.6094V33.6875H145.047V8.53125H148.922L149.594 10.7969H149.812C150.927 9.06771 152.578 8.20312 154.766 8.20312C156.828 8.20312 158.443 9 159.609 10.5938C160.776 12.1875 161.359 14.401 161.359 17.2344C161.359 19.099 161.083 20.7188 160.531 22.0938C159.99 23.4688 159.214 24.5156 158.203 25.2344C157.193 25.9531 156.005 26.3125 154.641 26.3125ZM153.234 12.0156C152.057 12.0156 151.198 12.3802 150.656 13.1094C150.115 13.8281 149.833 15.0208 149.812 16.6875V17.2031C149.812 19.0781 150.089 20.4219 150.641 21.2344C151.203 22.0469 152.089 22.4531 153.297 22.4531C155.432 22.4531 156.5 20.6927 156.5 17.1719C156.5 15.4531 156.234 14.1667 155.703 13.3125C155.182 12.4479 154.359 12.0156 153.234 12.0156Z" fill="white"/>
</g>
<path d="M14.3281 24.5312L13.7048 23.7493L13.7021 23.7515L14.3281 24.5312ZM1.67188 24.9375H0.671875V25.5617L1.23266 25.8359L1.67188 24.9375ZM1.67188 20.4375L2.07916 19.5242L0.671875 18.8966L0.671875 20.4375H1.67188ZM5.57812 21.8906L5.32223 22.8573L5.32456 22.8579L5.57812 21.8906ZM10.9531 21.7031L10.3747 20.8874L10.3676 20.8924L10.9531 21.7031ZM11.4375 18.7031L10.6205 19.2799L10.6288 19.2913L11.4375 18.7031ZM10.3281 17.6875L9.76924 18.5168L9.77753 18.5223L10.3281 17.6875ZM7.375 16.1406L7.80445 15.2375L7.80047 15.2357L7.375 16.1406ZM4.23438 14.25L3.57987 15.0061L4.23438 14.25ZM3.98438 4.5625L3.34077 3.79713L3.33791 3.79956L3.98438 4.5625ZM13.0625 3.25L12.8089 4.21732L12.8112 4.21791L13.0625 3.25ZM16.4531 4.4375L17.3768 4.82075L17.754 3.91163L16.851 3.52004L16.4531 4.4375ZM14.8906 8.20312L14.5111 9.12829L15.4325 9.50633L15.8143 8.58638L14.8906 8.20312ZM11.8594 7.15625L11.6168 8.1264L11.6198 8.12713L11.8594 7.15625ZM6.96875 10.2969L6.11615 10.8194L6.11999 10.8257L6.12393 10.8319L6.96875 10.2969ZM7.90625 11.2188L7.32879 12.0352L7.34006 12.0431L7.35155 12.0508L7.90625 11.2188ZM10.9844 12.8125L11.4157 11.9103L11.4152 11.9101L10.9844 12.8125ZM15.375 15.8906L14.5818 16.4996L14.5848 16.5034L15.375 15.8906ZM15.5625 19.6562C15.5625 21.4432 14.9347 22.7688 13.7048 23.7493L14.9515 25.3132C16.7008 23.9187 17.5625 21.9943 17.5625 19.6562H15.5625ZM13.7021 23.7515C12.459 24.7494 10.6474 25.3125 8.14062 25.3125V27.3125C10.9255 27.3125 13.2389 26.6881 14.9542 25.311L13.7021 23.7515ZM8.14062 25.3125C5.82989 25.3125 3.82815 24.8786 2.11109 24.0391L1.23266 25.8359C3.2656 26.8298 5.57636 27.3125 8.14062 27.3125V25.3125ZM2.67188 24.9375V20.4375H0.671875V24.9375H2.67188ZM1.26459 21.3508C2.83223 22.0499 4.18824 22.5572 5.32223 22.8573L5.83402 20.9239C4.84301 20.6616 3.59485 20.2001 2.07916 19.5242L1.26459 21.3508ZM5.32456 22.8579C6.46039 23.1557 7.52629 23.3125 8.51562 23.3125V21.3125C7.73413 21.3125 6.84169 21.1881 5.83169 20.9233L5.32456 22.8579ZM8.51562 23.3125C9.6835 23.3125 10.7368 23.0929 11.5386 22.5138L10.3676 20.8924C10.0444 21.1259 9.47275 21.3125 8.51562 21.3125V23.3125ZM11.5316 22.5189C12.4094 21.8964 12.8125 20.9638 12.8125 19.8906H10.8125C10.8125 20.4216 10.6426 20.6974 10.3747 20.8874L11.5316 22.5189ZM12.8125 19.8906C12.8125 19.2435 12.6275 18.6392 12.2462 18.115L10.6288 19.2913C10.7475 19.4546 10.8125 19.642 10.8125 19.8906H12.8125ZM12.2545 18.1264C11.9121 17.6414 11.438 17.2216 10.8787 16.8527L9.77753 18.5223C10.1975 18.7992 10.4629 19.0565 10.6205 19.2798L12.2545 18.1264ZM10.887 16.8582C10.3363 16.4871 9.28514 15.9416 7.80444 15.2375L6.94556 17.0437C8.44403 17.7563 9.36159 18.242 9.76927 18.5168L10.887 16.8582ZM7.80047 15.2357C6.43998 14.596 5.48682 14.0116 4.88888 13.4939L3.57987 15.0061C4.37776 15.6968 5.51835 16.3727 6.94953 17.0456L7.80047 15.2357ZM4.88888 13.4939C4.28447 12.9707 3.80703 12.3671 3.44991 11.6796L1.67509 12.6016C2.1513 13.5183 2.78845 14.3209 3.57987 15.0061L4.88888 13.4939ZM3.44991 11.6796C3.11986 11.0443 2.9375 10.2705 2.9375 9.32812H0.9375C0.9375 10.5316 1.1718 11.6328 1.67509 12.6016L3.44991 11.6796ZM2.9375 9.32812C2.9375 7.55844 3.52119 6.26568 4.63084 5.32544L3.33791 3.79956C1.71839 5.17182 0.9375 7.05615 0.9375 9.32812H2.9375ZM4.62797 5.32786C5.76884 4.3685 7.40904 3.82812 9.67188 3.82812V1.82812C7.10138 1.82812 4.94991 2.444 3.34078 3.79714L4.62797 5.32786ZM9.67188 3.82812C10.7798 3.82812 11.8244 3.95924 12.8089 4.21732L13.3161 2.28268C12.1548 1.97826 10.9389 1.82812 9.67188 1.82812V3.82812ZM12.8112 4.21791C13.8378 4.48444 14.919 4.86221 16.0553 5.35496L16.851 3.52004C15.6331 2.99196 14.4538 2.57806 13.3138 2.28209L12.8112 4.21791ZM15.5295 4.05425L13.967 7.81987L15.8143 8.58638L17.3768 4.82075L15.5295 4.05425ZM15.2702 7.27796C14.0293 6.76887 12.9682 6.39986 12.0989 6.18537L11.6198 8.12713C12.3547 8.30847 13.3145 8.63738 14.5111 9.12829L15.2702 7.27796ZM12.1019 6.18611C11.2356 5.96952 10.3729 5.85938 9.51562 5.85938V7.85938C10.2001 7.85938 10.8999 7.94715 11.6168 8.12639L12.1019 6.18611ZM9.51562 5.85938C8.45578 5.85938 7.4832 6.10585 6.74888 6.74643L8.06362 8.25357C8.30846 8.03998 8.74213 7.85938 9.51562 7.85938V5.85938ZM6.74888 6.74643C6.02761 7.37562 5.67188 8.21458 5.67188 9.17188H7.67188C7.67188 8.75417 7.80572 8.47854 8.06362 8.25357L6.74888 6.74643ZM5.67188 9.17188C5.67188 9.75926 5.80997 10.3199 6.11615 10.8194L7.82135 9.77431C7.7317 9.62804 7.67188 9.43865 7.67188 9.17188H5.67188ZM6.12393 10.8319C6.41429 11.2904 6.83593 11.6866 7.32879 12.0352L8.48371 10.4023C8.1224 10.1468 7.91905 9.92836 7.81357 9.76182L6.12393 10.8319ZM7.35155 12.0508C7.86011 12.3898 8.95584 12.9522 10.5535 13.7149L11.4152 11.9101C9.78375 11.1312 8.82739 10.631 8.46095 10.3867L7.35155 12.0508ZM10.5531 13.7147C12.6449 14.7147 13.9356 15.6578 14.5818 16.4996L16.1682 15.2817C15.2311 14.0609 13.5947 12.952 11.4157 11.9103L10.5531 13.7147ZM14.5848 16.5034C15.2202 17.3228 15.5625 18.3531 15.5625 19.6562H17.5625C17.5625 17.9803 17.1131 16.5001 16.1652 15.2778L14.5848 16.5034ZM24.9688 21.1562L24.1247 21.6925L24.1292 21.6995L24.9688 21.1562ZM30.4844 21.1719L29.6403 20.6356L29.6386 20.6383L30.4844 21.1719ZM24.9688 13.3438L25.8039 13.8937L25.807 13.8891L24.9688 13.3438ZM23.25 25.2188L22.7501 26.0848L22.7554 26.0879L23.25 25.2188ZM21.5 10.5781L20.7717 9.89291L21.5 10.5781ZM32.2188 9.29688L31.7241 10.166L32.2188 9.29688ZM23.125 17.2344C23.125 19.0428 23.4139 20.5737 24.1247 21.6925L25.8128 20.62C25.3986 19.968 25.125 18.8843 25.125 17.2344H23.125ZM24.1292 21.6995C24.9277 22.9336 26.2134 23.4844 27.75 23.4844V21.4844C26.7241 21.4844 26.1556 21.1497 25.8083 20.613L24.1292 21.6995ZM27.75 23.4844C29.2738 23.4844 30.5514 22.9397 31.3301 21.7055L29.6386 20.6383C29.3132 21.154 28.7679 21.4844 27.75 21.4844V23.4844ZM31.3284 21.7081C32.0397 20.5886 32.3281 19.0518 32.3281 17.2344H30.3281C30.3281 18.8961 30.0541 19.9843 29.6403 20.6356L31.3284 21.7081ZM32.3281 17.2344C32.3281 15.4287 32.0402 13.9014 31.3226 12.7984L29.6462 13.8891C30.0535 14.5152 30.3281 15.5817 30.3281 17.2344H32.3281ZM31.3226 12.7984C30.5298 11.5799 29.2448 11.0469 27.7188 11.0469V13.0469C28.7552 13.0469 29.3139 13.3784 29.6462 13.8891L31.3226 12.7984ZM27.7188 11.0469C26.1994 11.0469 24.9217 11.5824 24.1305 12.7984L25.807 13.8891C26.1408 13.376 26.6964 13.0469 27.7188 13.0469V11.0469ZM24.1336 12.7938C23.4119 13.8897 23.125 15.4212 23.125 17.2344H25.125C25.125 15.5684 25.4006 14.5062 25.8039 13.8937L24.1336 12.7938ZM35.2031 17.2344C35.2031 19.9018 34.5031 21.854 33.2227 23.2233L34.6835 24.5892C36.4032 22.7502 37.2031 20.2545 37.2031 17.2344H35.2031ZM33.2227 23.2233C31.9522 24.582 30.153 25.3125 27.6875 25.3125V27.3125C30.5762 27.3125 32.9541 26.4388 34.6835 24.5892L33.2227 23.2233ZM27.6875 25.3125C26.1596 25.3125 24.8554 24.9818 23.7446 24.3496L22.7554 26.0879C24.2071 26.9141 25.8612 27.3125 27.6875 27.3125V25.3125ZM23.7499 24.3527C22.6453 23.715 21.7948 22.8067 21.1913 21.5997L19.4024 22.4941C20.1739 24.0371 21.2922 25.2433 22.7501 26.0848L23.7499 24.3527ZM21.1913 21.5997C20.5854 20.3878 20.2656 18.9421 20.2656 17.2344H18.2656C18.2656 19.1933 18.6334 20.9559 19.4024 22.4941L21.1913 21.5997ZM20.2656 17.2344C20.2656 14.5529 20.9623 12.609 22.2283 11.2633L20.7717 9.89291C19.0585 11.7139 18.2656 14.2076 18.2656 17.2344H20.2656ZM22.2283 11.2633C23.4852 9.92737 25.2881 9.20312 27.7812 9.20312V7.20312C24.8786 7.20312 22.494 8.06221 20.7717 9.89291L22.2283 11.2633ZM27.7812 9.20312C29.3092 9.20312 30.6134 9.53385 31.7241 10.166L32.7134 8.42776C31.2616 7.60157 29.6075 7.20312 27.7812 7.20312V9.20312ZM31.7241 10.166C32.8277 10.794 33.6765 11.692 34.2788 12.8874L36.0649 11.9876C35.2922 10.4539 34.1723 9.25806 32.7134 8.42776L31.7241 10.166ZM34.2788 12.8874C34.8833 14.0872 35.2031 15.5264 35.2031 17.2344H37.2031C37.2031 15.2757 36.8355 13.5169 36.0649 11.9876L34.2788 12.8874ZM41.2969 10.5625L42.0231 11.25L42.0254 11.2476L41.2969 10.5625ZM53.0938 9.39062L54.0281 9.74695L54.3524 8.89663L53.5363 8.49388L53.0938 9.39062ZM51.6875 13.0781L51.3139 14.0057L52.2589 14.3863L52.6219 13.4344L51.6875 13.0781ZM49.5938 12.3438L49.3007 13.2999L49.3078 13.302L49.3149 13.3041L49.5938 12.3438ZM50.2031 22.0938L50.4963 23.0499L50.5079 23.0462L50.2031 22.0938ZM52.5469 20.9375H53.5469V19.069L51.9922 20.1054L52.5469 20.9375ZM52.5469 25.0156L53.083 25.8598L53.5469 25.5651V25.0156H52.5469ZM50.2031 26.0312L49.9727 25.0582L49.9698 25.0589L50.2031 26.0312ZM47.2344 25.3125C44.695 25.3125 42.9671 24.6199 41.8564 23.4008C40.7297 22.1639 40.0781 20.2115 40.0781 17.3594H38.0781C38.0781 20.476 38.7859 23.0001 40.3779 24.7477C41.9861 26.5129 44.3362 27.3125 47.2344 27.3125V25.3125ZM40.0781 17.3594C40.0781 14.5481 40.7773 12.5659 42.0231 11.25L40.5707 9.87502C38.8581 11.6841 38.0781 14.2332 38.0781 17.3594H40.0781ZM42.0254 11.2476C43.2662 9.92804 45.0904 9.20312 47.6562 9.20312V7.20312C44.7013 7.20312 42.2858 8.05113 40.5684 9.87744L42.0254 11.2476ZM47.6562 9.20312C49.5436 9.20312 51.2016 9.57197 52.6512 10.2874L53.5363 8.49388C51.7776 7.62594 49.8105 7.20312 47.6562 7.20312V9.20312ZM52.1594 9.0343L50.7531 12.7218L52.6219 13.4344L54.0281 9.74695L52.1594 9.0343ZM52.0611 12.1505C51.2861 11.8384 50.5562 11.5819 49.8726 11.3834L49.3149 13.3041C49.923 13.4806 50.5889 13.7137 51.3139 14.0057L52.0611 12.1505ZM49.8868 11.3876C49.1504 11.162 48.4059 11.0469 47.6562 11.0469V13.0469C48.1983 13.0469 48.7455 13.1297 49.3007 13.2999L49.8868 11.3876ZM47.6562 11.0469C46.1481 11.0469 44.8871 11.602 44.0495 12.7915C43.2572 13.9168 42.9375 15.4809 42.9375 17.3281H44.9375C44.9375 15.6545 45.2376 14.578 45.6848 13.9429C46.0869 13.372 46.6852 13.0469 47.6562 13.0469V11.0469ZM42.9375 17.3281C42.9375 19.1276 43.2586 20.6577 44.0578 21.7592C44.9002 22.9202 46.16 23.4531 47.6562 23.4531V21.4531C46.6733 21.4531 46.0737 21.1319 45.6766 20.5846C45.2362 19.9777 44.9375 18.9453 44.9375 17.3281H42.9375ZM47.6562 23.4531C48.6604 23.4531 49.6093 23.3218 50.4963 23.0498L49.9099 21.1377C49.2345 21.3448 48.4855 21.4531 47.6562 21.4531V23.4531ZM50.5079 23.0462C51.3894 22.7641 52.254 22.3346 53.1016 21.7696L51.9922 20.1054C51.2773 20.582 50.5794 20.9234 49.8983 21.1413L50.5079 23.0462ZM51.5469 20.9375V25.0156H53.5469V20.9375H51.5469ZM52.0107 24.1715C51.3225 24.6086 50.6436 24.8993 49.9727 25.0582L50.4336 27.0043C51.346 26.7882 52.2296 26.4018 53.083 25.8598L52.0107 24.1715ZM49.9698 25.0589C49.2924 25.2214 48.3881 25.3125 47.2344 25.3125V27.3125C48.4765 27.3125 49.5514 27.2161 50.4365 27.0036L49.9698 25.0589ZM60.9375 5.75L61.6267 6.47456L61.6272 6.47414L60.9375 5.75ZM61.375 26V27H62.375V26H61.375ZM56.6094 26H55.6094V27H56.6094V26ZM56.6094 8.53125V7.53125H55.6094V8.53125H56.6094ZM61.375 8.53125H62.375V7.53125H61.375V8.53125ZM57.4062 4.01562C57.4062 3.42333 57.5663 3.1541 57.7227 3.01372C57.8996 2.85488 58.2645 2.6875 59 2.6875V0.6875C58.0063 0.6875 57.0743 0.908138 56.3867 1.52535C55.6785 2.161 55.4062 3.05584 55.4062 4.01562H57.4062ZM59 2.6875C59.7355 2.6875 60.1004 2.85488 60.2773 3.01372C60.4337 3.1541 60.5938 3.42333 60.5938 4.01562H62.5938C62.5938 3.05584 62.3215 2.161 61.6133 1.52535C60.9257 0.908138 59.9937 0.6875 59 0.6875V2.6875ZM60.5938 4.01562C60.5938 4.54728 60.4441 4.83893 60.2478 5.02586L61.6272 6.47414C62.3059 5.82773 62.5938 4.96314 62.5938 4.01562H60.5938ZM60.2483 5.02544C60.0781 5.18729 59.7265 5.35938 59 5.35938V7.35938C60.0026 7.35938 60.9427 7.12521 61.6267 6.47456L60.2483 5.02544ZM59 5.35938C58.2659 5.35938 57.9021 5.19136 57.7251 5.03148C57.5674 4.88899 57.4062 4.6151 57.4062 4.01562H55.4062C55.4062 4.97865 55.6773 5.87663 56.3842 6.5154C57.0719 7.13676 58.0049 7.35938 59 7.35938V5.35938ZM61.375 25H56.6094V27H61.375V25ZM57.6094 26V8.53125H55.6094V26H57.6094ZM56.6094 9.53125H61.375V7.53125H56.6094V9.53125ZM60.375 8.53125V26H62.375V8.53125H60.375ZM77.4844 26L76.5521 26.3619L76.7998 27H77.4844V26ZM76.5625 23.625L77.4947 23.2631L77.247 22.625H76.5625V23.625ZM76.4375 23.625V22.625H75.9545L75.6543 23.0033L76.4375 23.625ZM73.9531 25.7344L74.3686 26.644L74.3736 26.6417L73.9531 25.7344ZM66.6719 24.875L65.9648 25.5821L65.9686 25.5859L66.6719 24.875ZM67.1719 16.6875L67.7327 17.5154L67.7342 17.5144L67.1719 16.6875ZM73.0469 15.2188L73.016 14.2192L73.011 14.2194L73.0469 15.2188ZM76.0781 15.125L76.109 16.1245L77.0781 16.0946V15.125H76.0781ZM68.4375 12.9688L67.5396 13.409L67.9647 14.2759L68.846 13.8815L68.4375 12.9688ZM66.8594 9.75L66.3957 8.86399L65.5327 9.31563L65.9615 10.1902L66.8594 9.75ZM78.9375 9.70312L79.57 8.92859L78.9375 9.70312ZM80.8125 26V27H81.8125V26H80.8125ZM76.0781 17.9062H77.0781V16.8718L76.0442 16.9068L76.0781 17.9062ZM74.2344 17.9688L74.2644 18.9683L74.2683 18.9682L74.2344 17.9688ZM75.0781 21.875L74.3882 21.1511L74.3825 21.1566L75.0781 21.875ZM78.4166 25.6381L77.4947 23.2631L75.6303 23.9869L76.5521 26.3619L78.4166 25.6381ZM76.5625 22.625H76.4375V24.625H76.5625V22.625ZM75.6543 23.0033C74.9152 23.9344 74.2028 24.5165 73.5327 24.8271L74.3736 26.6417C75.4118 26.1606 76.3557 25.3365 77.2207 24.2467L75.6543 23.0033ZM73.5376 24.8248C72.8708 25.1294 71.9238 25.3125 70.6406 25.3125V27.3125C72.0866 27.3125 73.3479 27.1102 74.3686 26.644L73.5376 24.8248ZM70.6406 25.3125C69.1625 25.3125 68.1154 24.8964 67.3751 24.1641L65.9686 25.5859C67.1658 26.7703 68.7646 27.3125 70.6406 27.3125V25.3125ZM67.379 24.1679C66.6606 23.4495 66.2344 22.3715 66.2344 20.7812H64.2344C64.2344 22.7327 64.7665 24.3839 65.9648 25.5821L67.379 24.1679ZM66.2344 20.7812C66.2344 19.187 66.7703 18.1674 67.7327 17.5154L66.611 15.8596C64.9901 16.9576 64.2344 18.6672 64.2344 20.7812H66.2344ZM67.7342 17.5144C68.8087 16.7838 70.5449 16.3091 73.0827 16.2181L73.011 14.2194C70.3196 14.3159 68.1392 14.8204 66.6096 15.8606L67.7342 17.5144ZM73.0778 16.2183L76.109 16.1245L76.0472 14.1255L73.016 14.2192L73.0778 16.2183ZM77.0781 15.125V14.3594H75.0781V15.125H77.0781ZM77.0781 14.3594C77.0781 13.3138 76.8091 12.3474 76.0973 11.6519C75.3898 10.9606 74.414 10.7031 73.3594 10.7031V12.7031C74.1172 12.7031 74.5009 12.8883 74.6996 13.0825C74.894 13.2724 75.0781 13.6341 75.0781 14.3594H77.0781ZM73.3594 10.7031C71.7719 10.7031 69.9866 11.1799 68.029 12.056L68.846 13.8815C70.6592 13.0701 72.1552 12.7031 73.3594 12.7031V10.7031ZM69.3354 12.5285L67.7573 9.30977L65.9615 10.1902L67.5396 13.409L69.3354 12.5285ZM67.323 10.636C69.1792 9.66463 71.2474 9.17188 73.5469 9.17188V7.17188C70.9505 7.17188 68.5603 7.73121 66.3957 8.86399L67.323 10.636ZM73.5469 9.17188C75.7615 9.17188 77.2988 9.65596 78.305 10.4777L79.57 8.92859C78.0762 7.70862 76.0198 7.17188 73.5469 7.17188V9.17188ZM78.305 10.4777C79.258 11.256 79.8125 12.4819 79.8125 14.3594H81.8125C81.8125 12.0702 81.117 10.1919 79.57 8.92859L78.305 10.4777ZM79.8125 14.3594V26H81.8125V14.3594H79.8125ZM80.8125 25H77.4844V27H80.8125V25ZM76.0442 16.9068L74.2005 16.9693L74.2683 18.9682L76.112 18.9057L76.0442 16.9068ZM74.2043 16.9692C72.7463 17.0131 71.4889 17.2754 70.5801 17.8906L71.7012 19.5469C72.1465 19.2454 72.9516 19.0078 74.2644 18.9683L74.2043 16.9692ZM70.5801 17.8906C69.5844 18.5646 69.125 19.5997 69.125 20.8125H71.125C71.125 20.1503 71.3426 19.7896 71.7012 19.5469L70.5801 17.8906ZM69.125 20.8125C69.125 21.677 69.3793 22.4969 70.0461 23.0781C70.6865 23.6363 71.5437 23.8281 72.4375 23.8281V21.8281C71.7897 21.8281 71.4905 21.684 71.3602 21.5704C71.2561 21.4797 71.125 21.2917 71.125 20.8125H69.125ZM72.4375 23.8281C73.7437 23.8281 74.8933 23.4459 75.7737 22.5934L74.3825 21.1566C73.9504 21.5749 73.3396 21.8281 72.4375 21.8281V23.8281ZM75.7681 22.5989C76.6616 21.7472 77.0781 20.6267 77.0781 19.3438H75.0781C75.0781 20.1649 74.828 20.732 74.3882 21.1511L75.7681 22.5989ZM77.0781 19.3438V17.9062H75.0781V19.3438H77.0781ZM90.5 26V27H91.5V26H90.5ZM85.7344 26H84.7344V27H85.7344V26ZM85.7344 1.6875V0.6875H84.7344V1.6875H85.7344ZM90.5 1.6875H91.5V0.6875H90.5V1.6875ZM90.5 25H85.7344V27H90.5V25ZM86.7344 26V1.6875H84.7344V26H86.7344ZM85.7344 2.6875H90.5V0.6875H85.7344V2.6875ZM89.5 1.6875V26H91.5V1.6875H89.5ZM105.562 26L104.607 26.2934L104.823 27H105.562V26ZM100.062 8.07812L101.018 7.78474L100.802 7.07812H100.062V8.07812ZM99.9219 8.07812V7.07812H98.8661L98.9233 8.13233L99.9219 8.07812ZM100.219 26V27H101.219V26H100.219ZM95.8906 26H94.8906V27H95.8906V26ZM95.8906 3.15625V2.15625H94.8906V3.15625H95.8906ZM102.484 3.15625L103.44 2.8606L103.222 2.15625H102.484V3.15625ZM107.891 20.625L106.935 20.9206L107.153 21.625H107.891V20.625ZM107.984 20.625V21.625H108.709L108.934 20.9369L107.984 20.625ZM113.719 3.15625V2.15625H112.995L112.769 2.84436L113.719 3.15625ZM120.312 3.15625H121.312V2.15625H120.312V3.15625ZM120.312 26V27H121.312V26H120.312ZM115.797 26H114.797V27H115.797V26ZM115.812 13.4219L114.813 13.3906L114.813 13.3984L114.813 13.4063L115.812 13.4219ZM116.031 8.10938L117.03 8.15281L117.076 7.10938H116.031V8.10938ZM115.891 8.10938V7.10938H115.167L114.941 7.79663L115.891 8.10938ZM110 26V27H110.724L110.95 26.3127L110 26ZM106.518 25.7066L101.018 7.78474L99.1065 8.37151L104.607 26.2934L106.518 25.7066ZM100.062 7.07812H99.9219V9.07812H100.062V7.07812ZM98.9233 8.13233C99.1215 11.7827 99.2188 14.1879 99.2188 15.375H101.219C101.219 14.1246 101.118 11.6653 100.92 8.02392L98.9233 8.13233ZM99.2188 15.375V26H101.219V15.375H99.2188ZM100.219 25H95.8906V27H100.219V25ZM96.8906 26V3.15625H94.8906V26H96.8906ZM95.8906 4.15625H102.484V2.15625H95.8906V4.15625ZM101.529 3.4519L106.935 20.9206L108.846 20.3294L103.44 2.8606L101.529 3.4519ZM107.891 21.625H107.984V19.625H107.891V21.625ZM108.934 20.9369L114.669 3.46814L112.769 2.84436L107.034 20.3131L108.934 20.9369ZM113.719 4.15625H120.312V2.15625H113.719V4.15625ZM119.312 3.15625V26H121.312V3.15625H119.312ZM120.312 25H115.797V27H120.312V25ZM116.797 26V15.1875H114.797V26H116.797ZM116.797 15.1875C116.797 14.6836 116.802 14.1004 116.812 13.4375L114.813 13.4063C114.802 14.0767 114.797 14.6706 114.797 15.1875H116.797ZM116.812 13.4531C116.833 12.794 116.905 11.0304 117.03 8.15281L115.032 8.06594C114.907 10.9384 114.834 12.7164 114.813 13.3906L116.812 13.4531ZM116.031 7.10938H115.891V9.10938H116.031V7.10938ZM114.941 7.79663L109.05 25.6873L110.95 26.3127L116.84 8.42212L114.941 7.79663ZM110 25H105.562V27H110V25ZM136.797 26L135.865 26.3619L136.112 27H136.797V26ZM135.875 23.625L136.807 23.2631L136.56 22.625H135.875V23.625ZM135.75 23.625V22.625H135.267L134.967 23.0033L135.75 23.625ZM133.266 25.7344L133.681 26.644L133.686 26.6417L133.266 25.7344ZM125.984 24.875L125.277 25.5821L125.281 25.5859L125.984 24.875ZM126.484 16.6875L127.045 17.5154L127.047 17.5144L126.484 16.6875ZM132.359 15.2188L132.328 14.2192L132.324 14.2194L132.359 15.2188ZM135.391 15.125L135.422 16.1245L136.391 16.0946V15.125H135.391ZM127.75 12.9688L126.852 13.409L127.277 14.2759L128.158 13.8815L127.75 12.9688ZM126.172 9.75L125.708 8.86399L124.845 9.31563L125.274 10.1902L126.172 9.75ZM138.25 9.70312L138.883 8.92859L138.25 9.70312ZM140.125 26V27H141.125V26H140.125ZM135.391 17.9062H136.391V16.8718L135.357 16.9068L135.391 17.9062ZM133.547 17.9688L133.577 18.9683L133.581 18.9682L133.547 17.9688ZM134.391 21.875L133.701 21.1511L133.695 21.1566L134.391 21.875ZM137.729 25.6381L136.807 23.2631L134.943 23.9869L135.865 26.3619L137.729 25.6381ZM135.875 22.625H135.75V24.625H135.875V22.625ZM134.967 23.0033C134.228 23.9344 133.515 24.5165 132.845 24.8271L133.686 26.6417C134.724 26.1606 135.668 25.3365 136.533 24.2467L134.967 23.0033ZM132.85 24.8248C132.183 25.1294 131.236 25.3125 129.953 25.3125V27.3125C131.399 27.3125 132.66 27.1102 133.681 26.644L132.85 24.8248ZM129.953 25.3125C128.475 25.3125 127.428 24.8964 126.688 24.1641L125.281 25.5859C126.478 26.7703 128.077 27.3125 129.953 27.3125V25.3125ZM126.691 24.1679C125.973 23.4495 125.547 22.3715 125.547 20.7812H123.547C123.547 22.7327 124.079 24.3839 125.277 25.5821L126.691 24.1679ZM125.547 20.7812C125.547 19.187 126.083 18.1674 127.045 17.5154L125.924 15.8596C124.303 16.9576 123.547 18.6672 123.547 20.7812H125.547ZM127.047 17.5144C128.121 16.7838 129.857 16.3091 132.395 16.2181L132.324 14.2194C129.632 14.3159 127.452 14.8204 125.922 15.8606L127.047 17.5144ZM132.39 16.2183L135.422 16.1245L135.36 14.1255L132.328 14.2192L132.39 16.2183ZM136.391 15.125V14.3594H134.391V15.125H136.391ZM136.391 14.3594C136.391 13.3138 136.122 12.3474 135.41 11.6519C134.702 10.9606 133.727 10.7031 132.672 10.7031V12.7031C133.43 12.7031 133.813 12.8883 134.012 13.0825C134.207 13.2724 134.391 13.6341 134.391 14.3594H136.391ZM132.672 10.7031C131.084 10.7031 129.299 11.1799 127.342 12.056L128.158 13.8815C129.972 13.0701 131.468 12.7031 132.672 12.7031V10.7031ZM128.648 12.5285L127.07 9.30977L125.274 10.1902L126.852 13.409L128.648 12.5285ZM126.636 10.636C128.492 9.66463 130.56 9.17188 132.859 9.17188V7.17188C130.263 7.17188 127.873 7.73121 125.708 8.86399L126.636 10.636ZM132.859 9.17188C135.074 9.17188 136.611 9.65596 137.617 10.4777L138.883 8.92859C137.389 7.70862 135.332 7.17188 132.859 7.17188V9.17188ZM137.617 10.4777C138.571 11.256 139.125 12.4819 139.125 14.3594H141.125C141.125 12.0702 140.429 10.1919 138.883 8.92859L137.617 10.4777ZM139.125 14.3594V26H141.125V14.3594H139.125ZM140.125 25H136.797V27H140.125V25ZM135.357 16.9068L133.513 16.9693L133.581 18.9682L135.425 18.9057L135.357 16.9068ZM133.517 16.9692C132.059 17.0131 130.801 17.2754 129.893 17.8906L131.014 19.5469C131.459 19.2454 132.264 19.0078 133.577 18.9683L133.517 16.9692ZM129.893 17.8906C128.897 18.5646 128.438 19.5997 128.438 20.8125H130.438C130.438 20.1503 130.655 19.7896 131.014 19.5469L129.893 17.8906ZM128.438 20.8125C128.438 21.677 128.692 22.4969 129.359 23.0781C129.999 23.6363 130.856 23.8281 131.75 23.8281V21.8281C131.102 21.8281 130.803 21.684 130.673 21.5704C130.569 21.4797 130.438 21.2917 130.438 20.8125H128.438ZM131.75 23.8281C133.056 23.8281 134.206 23.4459 135.086 22.5934L133.695 21.1566C133.263 21.5749 132.652 21.8281 131.75 21.8281V23.8281ZM135.081 22.5989C135.974 21.7472 136.391 20.6267 136.391 19.3438H134.391C134.391 20.1649 134.14 20.732 133.701 21.1511L135.081 22.5989ZM136.391 19.3438V17.9062H134.391V19.3438H136.391ZM149.812 24.0781L150.6 23.4615L150.299 23.0781H149.812V24.0781ZM149.562 24.0781V23.0781H148.442L148.569 24.1917L149.562 24.0781ZM149.812 33.6875V34.6875H150.812V33.6875H149.812ZM145.047 33.6875H144.047V34.6875H145.047V33.6875ZM145.047 8.53125V7.53125H144.047V8.53125H145.047ZM148.922 8.53125L149.881 8.24694L149.668 7.53125H148.922V8.53125ZM149.594 10.7969L148.635 11.0812L148.847 11.7969H149.594V10.7969ZM149.812 10.7969V11.7969H150.358L150.653 11.3387L149.812 10.7969ZM159.609 10.5938L158.802 11.1844L159.609 10.5938ZM160.531 22.0938L159.603 21.7211L159.601 21.7272L160.531 22.0938ZM158.203 25.2344L157.623 24.4195L158.203 25.2344ZM150.656 13.1094L151.455 13.7112L151.459 13.7057L150.656 13.1094ZM149.812 16.6875L148.812 16.675V16.6875H149.812ZM150.641 21.2344L149.813 21.7964L149.818 21.8036L150.641 21.2344ZM155.703 13.3125L154.847 13.8285L154.85 13.8346L154.854 13.8406L155.703 13.3125ZM154.641 25.3125C152.866 25.3125 151.559 24.6865 150.6 23.4615L149.025 24.6947C150.399 26.4489 152.311 27.3125 154.641 27.3125V25.3125ZM149.812 23.0781H149.562V25.0781H149.812V23.0781ZM148.569 24.1917C148.652 24.9188 148.714 25.4886 148.755 25.903C148.775 26.1104 148.79 26.2753 148.8 26.3997C148.805 26.4619 148.808 26.5112 148.81 26.549C148.811 26.5677 148.812 26.5823 148.812 26.5932C148.812 26.6045 148.812 26.6094 148.812 26.6094H150.812C150.812 26.307 150.718 25.3854 150.556 23.9646L148.569 24.1917ZM148.812 26.6094V33.6875H150.812V26.6094H148.812ZM149.812 32.6875H145.047V34.6875H149.812V32.6875ZM146.047 33.6875V8.53125H144.047V33.6875H146.047ZM145.047 9.53125H148.922V7.53125H145.047V9.53125ZM147.963 8.81556L148.635 11.0812L150.552 10.5126L149.881 8.24694L147.963 8.81556ZM149.594 11.7969H149.812V9.79688H149.594V11.7969ZM150.653 11.3387C151.57 9.91614 152.892 9.20312 154.766 9.20312V7.20312C152.264 7.20312 150.284 8.21927 148.972 10.2551L150.653 11.3387ZM154.766 9.20312C156.526 9.20312 157.834 9.86105 158.802 11.1844L160.416 10.0031C159.052 8.13895 157.13 7.20312 154.766 7.20312V9.20312ZM158.802 11.1844C159.8 12.5467 160.359 14.5245 160.359 17.2344H162.359C162.359 14.2776 161.752 11.8283 160.416 10.0031L158.802 11.1844ZM160.359 17.2344C160.359 19.003 160.097 20.4909 159.603 21.7211L161.459 22.4664C162.069 20.9466 162.359 19.1949 162.359 17.2344H160.359ZM159.601 21.7272C159.116 22.957 158.448 23.8331 157.623 24.4195L158.783 26.0492C159.979 25.1982 160.863 23.9805 161.462 22.4603L159.601 21.7272ZM157.623 24.4195C156.799 25.0057 155.819 25.3125 154.641 25.3125V27.3125C156.191 27.3125 157.586 26.9005 158.783 26.0492L157.623 24.4195ZM153.234 11.0156C151.844 11.0156 150.638 11.4574 149.854 12.5131L151.459 13.7057C151.758 13.303 152.271 13.0156 153.234 13.0156V11.0156ZM149.858 12.5075C149.118 13.4892 148.834 14.9525 148.813 16.675L150.812 16.7C150.833 15.0891 151.111 14.1671 151.455 13.7112L149.858 12.5075ZM148.812 16.6875V17.2031H150.812V16.6875H148.812ZM148.812 17.2031C148.812 19.1243 149.085 20.7249 149.814 21.7964L151.468 20.6724C151.092 20.1188 150.812 19.0319 150.812 17.2031H148.812ZM149.818 21.8036C150.61 22.9475 151.843 23.4531 153.297 23.4531V21.4531C152.334 21.4531 151.796 21.1462 151.463 20.6652L149.818 21.8036ZM153.297 23.4531C154.698 23.4531 155.831 22.8438 156.554 21.6514C157.229 20.5397 157.5 19.0008 157.5 17.1719H155.5C155.5 18.8638 155.238 19.9655 154.844 20.6142C154.5 21.1822 154.031 21.4531 153.297 21.4531V23.4531ZM157.5 17.1719C157.5 15.3833 157.23 13.8733 156.552 12.7844L154.854 13.8406C155.239 14.46 155.5 15.523 155.5 17.1719H157.5ZM156.56 12.7965C155.834 11.5925 154.662 11.0156 153.234 11.0156V13.0156C154.057 13.0156 154.53 13.3033 154.847 13.8285L156.56 12.7965Z" fill="#162351" mask="url(#path-1-outside-1_1237_11)"/>
<defs>
<filter id="filter0_i_1237_11" x="0.671875" y="0.6875" width="161.688" height="34" filterUnits="userSpaceOnUse" color-interpolation-filters="sRGB">
<feFlood flood-opacity="0" result="BackgroundImageFix"/>
<feBlend mode="normal" in="SourceGraphic" in2="BackgroundImageFix" result="shape"/>
<feColorMatrix in="SourceAlpha" type="matrix" values="0 0 0 0 0 0 0 0 0 0 0 0 0 0 0 0 0 0 127 0" result="hardAlpha"/>
<feOffset/>
<feGaussianBlur stdDeviation="2"/>
<feComposite in2="hardAlpha" operator="arithmetic" k2="-1" k3="1"/>
<feColorMatrix type="matrix" values="0 0 0 0 0.2 0 0 0 0 0.286275 0 0 0 0 0.572549 0 0 0 0.51 0"/>
<feBlend mode="normal" in2="shape" result="effect1_innerShadow_1237_11"/>
</filter>
</defs>
</svg>
